# xmcd
# 
# Track frame offsets:
#     150
#     17175
#     23003
#     42705
# 
# Disc length: 961
# 
# Revision: 1
# Processed by: cddbd v1.5.2PL0 Copyright (c) Steve Scherf et al.
# Submitted via: BonkEnc v1.0
# 
DISCID=2c03bf04
DTITLE=Scoobie Do - ラストナンバー
DYEAR=2003
DGENRE=Rock
TTITLE0=ラストナンバー
TTITLE1=R134
TTITLE2=八月の天使
TTITLE3=サマーダウン
EXTD=YEAR: 2003
EXTT0=
EXTT1=
EXTT2=
EXTT3=
PLAYORDER=
